<svg width="12" height="12" viewBox="0 0 12 12" fill="none" xmlns="http://www.w3.org/2000/svg">
<path d="M9.38124 0.816194H7.07108V0.792874C7.07108 0.349798 6.72456 0 6.28563 0H4.71472C4.27579 0 3.92927 0.349798 3.92927 0.792874V0.816194H1.61911C1.37654 0.816194 1.18018 1.01441 1.18018 1.25927V1.70235C1.18018 1.94721 1.37654 2.14542 1.61911 2.14542H9.38124C9.62381 2.14542 9.82017 1.94721 9.82017 1.70235V1.25927C9.82017 1.01441 9.62381 0.816194 9.38124 0.816194Z" fill="#191C1C" fill-opacity="0.7"/>
<path d="M8.80276 3.06836H2.19571C2.06865 3.06836 1.97624 3.1733 1.98779 3.30156L2.31121 10.0527C2.34587 10.7989 2.95806 11.3935 3.69731 11.3935H7.28961C8.02886 11.3935 8.64105 10.8105 8.67571 10.0527L8.99913 3.30156C9.02223 3.18496 8.91827 3.06836 8.80276 3.06836ZM4.87049 9.58626C4.87049 9.79613 4.62137 9.95937 4.41346 9.95937C4.20555 9.95937 3.95049 9.79613 3.95049 9.58626V4.88731C3.95049 4.67743 4.21782 4.51419 4.42574 4.51419C4.63365 4.51419 4.87049 4.67743 4.87049 4.88731V9.58626ZM7.04049 9.58626C7.04049 9.79613 6.79293 9.95937 6.58501 9.95937C6.3771 9.95937 6.12049 9.79613 6.12049 9.58626V4.88731C6.12049 4.67743 6.3771 4.51419 6.58501 4.51419C6.79293 4.51419 7.04049 4.67743 7.04049 4.88731V9.58626Z" fill="#191C1C" fill-opacity="0.7"/>
</svg>
