<svg width="12" height="12" viewBox="0 0 12 12" fill="none" xmlns="http://www.w3.org/2000/svg">
<path d="M10.3073 4.91981C10.5616 4.66851 10.3837 4.23529 10.0262 4.23529H8.14286V0.400001C8.14286 0.179087 7.96377 0 7.74286 0H4.25714C4.03623 0 3.85714 0.179086 3.85714 0.4V4.23529H1.97383C1.61632 4.23529 1.43838 4.66851 1.69266 4.91981L5.71884 8.89861C5.87465 9.0526 6.12535 9.0526 6.28116 8.89861L10.3073 4.91981ZM1.4 10.5882C1.17909 10.5882 1 10.7673 1 10.9882V11.6C1 11.8209 1.17909 12 1.4 12H10.6C10.8209 12 11 11.8209 11 11.6V10.9882C11 10.7673 10.8209 10.5882 10.6 10.5882H1.4Z" fill="#191C1C" fill-opacity="0.7"/>
</svg>
