<svg width="21" height="21" viewBox="0 0 21 21" fill="currentColor" xmlns="http://www.w3.org/2000/svg">
<path d="M15.847 5.00125L12.6217 5.40186C12.5092 5.41549 12.4632 5.55187 12.5416 5.63199L13.4741 6.56447L10.8573 9.18121C10.8319 9.20685 10.8177 9.24146 10.8177 9.27753C10.8177 9.3136 10.8319 9.34822 10.8573 9.37385L11.6262 10.1427C11.679 10.1955 11.7659 10.1955 11.8188 10.1427L14.4372 7.52423L15.3697 8.45671C15.3877 8.47469 15.4104 8.48724 15.4352 8.49292C15.46 8.49859 15.4859 8.49717 15.5099 8.4888C15.5339 8.48044 15.5551 8.46548 15.571 8.44563C15.5869 8.42578 15.5969 8.40185 15.5998 8.37659L15.9988 5.15297C16.0016 5.13238 15.9996 5.11142 15.993 5.09173C15.9863 5.07203 15.9752 5.05414 15.9606 5.03944C15.9459 5.02475 15.928 5.01366 15.9083 5.00703C15.8886 5.0004 15.8676 4.99843 15.847 5.00125ZM8.37355 11.8576C8.34792 11.8322 8.31331 11.818 8.27724 11.818C8.24117 11.818 8.20655 11.8322 8.18092 11.8576L5.56418 14.4761L4.6317 13.5436C4.61371 13.5256 4.59102 13.5131 4.56622 13.5074C4.54143 13.5017 4.51553 13.5031 4.49151 13.5115C4.46749 13.5199 4.44631 13.5348 4.4304 13.5547C4.41449 13.5745 4.4045 13.5984 4.40156 13.6237L4.00096 16.8473C3.99073 16.936 4.06403 17.0093 4.15268 16.999L7.378 16.5984C7.49051 16.5848 7.53654 16.4484 7.45812 16.3683L6.52564 15.4358L9.14409 12.8174C9.19693 12.7645 9.19693 12.6776 9.14409 12.6247L8.37355 11.8576Z" fill="currentColor"/>
</svg>
