<svg width="18" height="18" viewBox="0 0 18 18" fill="none" xmlns="http://www.w3.org/2000/svg">
<circle cx="9" cy="9" r="9" fill="#191C1C" fill-opacity="0.5"/>
<path d="M7.80664 7.26758H10.1943V14.0176H7.80664V7.26758Z" fill="white"/>
<path d="M8.10496 6.11896C8.3481 6.35104 8.64649 6.46708 9.00014 6.46708C9.34274 6.46708 9.63561 6.35104 9.87875 6.11896C10.1219 5.87582 10.2435 5.57743 10.2435 5.22378C10.2435 4.87012 10.1219 4.57726 9.87875 4.34517C9.63561 4.10204 9.34274 3.98047 9.00014 3.98047C8.64649 3.98047 8.3481 4.10204 8.10496 4.34517C7.87288 4.57726 7.75684 4.87012 7.75684 5.22378C7.75684 5.57743 7.87288 5.87582 8.10496 6.11896Z" fill="white"/>
</svg>
