<svg width="99" height="80" viewBox="0 0 99 80" fill="none" xmlns="http://www.w3.org/2000/svg">
<path d="M27.4856 37.3997C28.4724 37.3997 29.2724 36.5997 29.2724 35.6129C29.2724 34.6261 28.4724 33.8262 27.4856 33.8262C26.4988 33.8262 25.6989 34.6261 25.6989 35.6129C25.6989 36.5997 26.4988 37.3997 27.4856 37.3997Z" fill="url(#paint0_linear)"/>
<path d="M3.06018 37.3997C4.04698 37.3997 4.84693 36.5997 4.84693 35.6129C4.84693 34.6261 4.04698 33.8262 3.06018 33.8262C2.07338 33.8262 1.27344 34.6261 1.27344 35.6129C1.27344 36.5997 2.07338 37.3997 3.06018 37.3997Z" fill="url(#paint1_linear)"/>
<path d="M27.2195 37.3997C24.0262 36.6394 19.9774 35.9931 15.2634 35.9931C11.994 35.9931 7.90726 36.2972 3.3073 37.3997C3.3073 36.2022 3.3073 35.0047 3.3073 33.8262C6.50066 34.5865 10.5494 35.2328 15.2634 35.2328C18.5328 35.2328 22.6196 34.9286 27.2195 33.8262C27.2195 35.0047 27.2195 36.2022 27.2195 37.3997Z" fill="url(#paint2_linear)"/>
<path d="M22.8859 31.2591C23.8727 31.2591 24.6726 30.4591 24.6726 29.4723C24.6726 28.4855 23.8727 27.6855 22.8859 27.6855C21.8991 27.6855 21.0991 28.4855 21.0991 29.4723C21.0991 30.4591 21.8991 31.2591 22.8859 31.2591Z" fill="url(#paint3_linear)"/>
<path d="M7.67937 31.2591C8.66617 31.2591 9.46611 30.4591 9.46611 29.4723C9.46611 28.4855 8.66617 27.6855 7.67937 27.6855C6.69257 27.6855 5.89258 28.4855 5.89258 29.4723C5.89258 30.4591 6.69257 31.2591 7.67937 31.2591Z" fill="url(#paint4_linear)"/>
<path d="M22.4487 31.164C20.5377 30.4361 18.1298 29.8173 15.3206 29.8173C13.3714 29.8173 10.9444 30.1085 8.19258 31.164C8.19258 30.0175 8.19258 28.8709 8.19258 27.7426C10.1036 28.4706 12.5115 29.0893 15.3206 29.0893C17.2698 29.0893 19.6968 28.7981 22.4487 27.7426C22.4487 28.8891 22.4487 30.0175 22.4487 31.164Z" fill="url(#paint5_linear)"/>
<path d="M16.9933 43.7864C17.9801 43.7864 18.78 42.9865 18.78 41.9997C18.78 41.0129 17.9801 40.2129 16.9933 40.2129C16.0065 40.2129 15.2065 41.0129 15.2065 41.9997C15.2065 42.9865 16.0065 43.7864 16.9933 43.7864Z" fill="url(#paint6_linear)"/>
<path d="M1.78679 43.7864C2.77359 43.7864 3.57354 42.9865 3.57354 41.9997C3.57354 41.0129 2.77359 40.2129 1.78679 40.2129C0.799989 40.2129 0 41.0129 0 41.9997C0 42.9865 0.799989 43.7864 1.78679 43.7864Z" fill="url(#paint7_linear)"/>
<path d="M16.5561 43.7104C14.6451 42.9824 12.2372 42.3636 9.42802 42.3636C7.47879 42.3636 5.05185 42.6548 2.3 43.7104C2.3 42.5638 2.3 41.4173 2.3 40.2889C4.21101 41.0169 6.61884 41.6357 9.42802 41.6357C11.3773 41.6357 13.8042 41.3445 16.5561 40.2889C16.5561 41.4355 16.5561 42.5638 16.5561 43.7104Z" fill="url(#paint8_linear)"/>
<path d="M15.3395 26.3938C16.3263 26.3938 17.1263 25.5939 17.1263 24.6071C17.1263 23.6203 16.3263 22.8203 15.3395 22.8203C14.3527 22.8203 13.5527 23.6203 13.5527 24.6071C13.5527 25.5939 14.3527 26.3938 15.3395 26.3938Z" fill="url(#paint9_linear)"/>
<path d="M27.4856 50.1731C28.4724 50.1731 29.2724 49.3732 29.2724 48.3864C29.2724 47.3996 28.4724 46.5996 27.4856 46.5996C26.4988 46.5996 25.6989 47.3996 25.6989 48.3864C25.6989 49.3732 26.4988 50.1731 27.4856 50.1731Z" fill="url(#paint10_linear)"/>
<path d="M27.4856 50.1731C28.4724 50.1731 29.2724 49.3732 29.2724 48.3864C29.2724 47.3996 28.4724 46.5996 27.4856 46.5996C26.4988 46.5996 25.6989 47.3996 25.6989 48.3864C25.6989 49.3732 26.4988 50.1731 27.4856 50.1731Z" fill="url(#paint11_linear)"/>
<path d="M3.06018 50.1731C4.04698 50.1731 4.84693 49.3732 4.84693 48.3864C4.84693 47.3996 4.04698 46.5996 3.06018 46.5996C2.07338 46.5996 1.27344 47.3996 1.27344 48.3864C1.27344 49.3732 2.07338 50.1731 3.06018 50.1731Z" fill="url(#paint12_linear)"/>
<path d="M3.06018 50.1731C4.04698 50.1731 4.84693 49.3732 4.84693 48.3864C4.84693 47.3996 4.04698 46.5996 3.06018 46.5996C2.07338 46.5996 1.27344 47.3996 1.27344 48.3864C1.27344 49.3732 2.07338 50.1731 3.06018 50.1731Z" fill="url(#paint13_linear)"/>
<path d="M27.2195 46.5996C24.0262 47.3599 19.9774 48.0062 15.2634 48.0062C11.994 48.0062 7.90726 47.7021 3.3073 46.5996C3.3073 47.7971 3.3073 48.9946 3.3073 50.1731C6.50066 49.4128 10.5494 48.7665 15.2634 48.7665C18.5328 48.7665 22.6196 49.0707 27.2195 50.1731C27.2195 48.9946 27.2195 47.7971 27.2195 46.5996Z" fill="url(#paint14_linear)"/>
<path d="M27.2195 46.5996C24.0262 47.3599 19.9774 48.0062 15.2634 48.0062C11.994 48.0062 7.90726 47.7021 3.3073 46.5996C3.3073 47.7971 3.3073 48.9946 3.3073 50.1731C6.50066 49.4128 10.5494 48.7665 15.2634 48.7665C18.5328 48.7665 22.6196 49.0707 27.2195 50.1731C27.2195 48.9946 27.2195 47.7971 27.2195 46.5996Z" fill="url(#paint15_linear)"/>
<path d="M22.8859 56.3118C23.8727 56.3118 24.6726 55.5118 24.6726 54.525C24.6726 53.5382 23.8727 52.7383 22.8859 52.7383C21.8991 52.7383 21.0991 53.5382 21.0991 54.525C21.0991 55.5118 21.8991 56.3118 22.8859 56.3118Z" fill="url(#paint16_linear)"/>
<path d="M7.67937 56.3118C8.66617 56.3118 9.46611 55.5118 9.46611 54.525C9.46611 53.5382 8.66617 52.7383 7.67937 52.7383C6.69257 52.7383 5.89258 53.5382 5.89258 54.525C5.89258 55.5118 6.69257 56.3118 7.67937 56.3118Z" fill="url(#paint17_linear)"/>
<path d="M22.4487 52.8333C20.5377 53.5613 18.1298 54.1801 15.3206 54.1801C13.3714 54.1801 10.9444 53.8889 8.19258 52.8333C8.19258 53.9799 8.19258 55.1264 8.19258 56.2548C10.1036 55.5268 12.5115 54.908 15.3206 54.908C17.2698 54.908 19.6968 55.1992 22.4487 56.2548C22.4487 55.1082 22.4487 53.9799 22.4487 52.8333Z" fill="url(#paint18_linear)"/>
<path d="M15.3395 61.179C16.3263 61.179 17.1263 60.379 17.1263 59.3922C17.1263 58.4054 16.3263 57.6055 15.3395 57.6055C14.3527 57.6055 13.5527 58.4054 13.5527 59.3922C13.5527 60.379 14.3527 61.179 15.3395 61.179Z" fill="url(#paint19_linear)"/>
<path d="M15.3395 61.179C16.3263 61.179 17.1263 60.379 17.1263 59.3922C17.1263 58.4054 16.3263 57.6055 15.3395 57.6055C14.3527 57.6055 13.5527 58.4054 13.5527 59.3922C13.5527 60.379 14.3527 61.179 15.3395 61.179Z" fill="url(#paint20_linear)"/>
<path d="M64.42 48V45.9H56.94C56.52 45.9 56.2 45.88 56.04 45.72C55.92 45.62 55.84 45.4 55.84 45.18V41.9H64.14V39.8H55.84V36.98C55.84 36.78 55.84 36.5 56.06 36.3C56.26 36.12 56.54 36.1 56.78 36.1H64.34V34H55.36C54.82 34 54.14 34.04 53.68 34.54C53.38 34.88 53.2 35.44 53.2 36V45.92C53.2 46.46 53.24 47.1 53.72 47.56C54.18 48 54.72 48 55.32 48H64.42ZM73.0673 34V37.4H69.9273C69.0673 37.4 67.4073 37.48 66.3673 38.98C65.6473 40.02 65.5473 41.42 65.5473 42.54C65.5473 44.28 65.8073 45.28 66.0673 45.9C66.8473 47.74 68.3873 48 69.4473 48H73.6273C74.1073 48 74.7273 47.96 75.0873 47.46C75.3073 47.16 75.4073 46.6 75.4073 46.14V34H73.0673ZM73.0673 39.2V45.3C73.0673 45.46 73.0673 45.88 72.8873 46.04C72.7273 46.2 72.3673 46.2 72.2673 46.2H70.3873C69.7073 46.2 68.7073 46.06 68.2473 45C68.1673 44.8 67.9673 44.28 67.9673 42.62C67.9673 41.18 68.1873 40.52 68.4273 40.14C68.9273 39.32 69.7673 39.2 70.3873 39.2H73.0673ZM76.9992 48H79.3392V39.76C79.3392 39.62 79.3392 39.46 79.4592 39.32C79.5792 39.2 79.7192 39.2 79.8592 39.2H82.2392C83.0992 39.2 83.5792 39.4 83.9192 39.84C84.2992 40.34 84.3592 41.02 84.3592 41.72V48H86.6992V41.02C86.6992 39.56 86.2192 38.76 85.6592 38.26C84.8192 37.5 83.7992 37.4 82.6992 37.4H78.9592C78.4992 37.4 77.7792 37.38 77.3392 37.88C77.0192 38.22 76.9992 38.7 76.9992 39.02V48ZM88.8078 37.4V39.2H94.0278C94.3878 39.2 94.8478 39.26 95.1678 39.66C95.4278 39.98 95.4678 40.34 95.4678 40.66V41.4H90.8678C90.3078 41.4 89.5878 41.44 88.9278 42.02C88.1278 42.72 88.0278 43.66 88.0278 44.6C88.0278 45.38 88.0878 46.74 88.9478 47.48C89.5478 48 90.2878 48 90.8678 48H95.9278C96.4278 48 97.0078 47.96 97.3878 47.58C97.7678 47.2 97.8078 46.6 97.8078 46.22V40.72C97.8078 39.54 97.4678 38.68 97.0278 38.22C96.5478 37.72 95.7278 37.4 94.8278 37.4H88.8078ZM95.4678 43.2V45.64C95.4678 45.8 95.4678 45.94 95.3078 46.08C95.1478 46.2 94.9278 46.2 94.7878 46.2H91.5278C91.2278 46.2 90.9278 46.04 90.7678 45.88C90.4878 45.58 90.4478 45.02 90.4478 44.7C90.4478 43.94 90.6278 43.66 90.7078 43.56C90.9678 43.22 91.4078 43.2 91.5678 43.2H95.4678Z" fill="#191C1C"/>
<defs>
<linearGradient id="paint0_linear" x1="-0.570387" y1="34.9876" x2="0.357895" y2="40.3112" gradientUnits="userSpaceOnUse">
<stop offset="0.238725" stop-color="#3A8370"/>
<stop offset="0.759012" stop-color="#0BD4B0"/>
</linearGradient>
<linearGradient id="paint1_linear" x1="-0.570387" y1="34.9876" x2="0.357895" y2="40.3112" gradientUnits="userSpaceOnUse">
<stop offset="0.238725" stop-color="#3A8370"/>
<stop offset="0.759012" stop-color="#0BD4B0"/>
</linearGradient>
<linearGradient id="paint2_linear" x1="-0.570387" y1="34.9876" x2="0.357895" y2="40.3112" gradientUnits="userSpaceOnUse">
<stop offset="0.238725" stop-color="#3A8370"/>
<stop offset="0.759012" stop-color="#0BD4B0"/>
</linearGradient>
<linearGradient id="paint3_linear" x1="-1.33051" y1="28.8469" x2="0.727159" y2="36.762" gradientUnits="userSpaceOnUse">
<stop offset="0.238725" stop-color="#3A8370"/>
<stop offset="0.759012" stop-color="#0BD4B0"/>
</linearGradient>
<linearGradient id="paint4_linear" x1="-1.33051" y1="28.8469" x2="0.727159" y2="36.762" gradientUnits="userSpaceOnUse">
<stop offset="0.238725" stop-color="#3A8370"/>
<stop offset="0.759012" stop-color="#0BD4B0"/>
</linearGradient>
<linearGradient id="paint5_linear" x1="-1.33051" y1="28.8469" x2="0.727159" y2="36.762" gradientUnits="userSpaceOnUse">
<stop offset="0.238725" stop-color="#3A8370"/>
<stop offset="0.759012" stop-color="#0BD4B0"/>
</linearGradient>
<linearGradient id="paint6_linear" x1="-1.33057" y1="41.3743" x2="0.769212" y2="49.4513" gradientUnits="userSpaceOnUse">
<stop offset="0.238725" stop-color="#3A8370"/>
<stop offset="0.759012" stop-color="#0BD4B0"/>
</linearGradient>
<linearGradient id="paint7_linear" x1="-1.33057" y1="41.3743" x2="0.769212" y2="49.4513" gradientUnits="userSpaceOnUse">
<stop offset="0.238725" stop-color="#3A8370"/>
<stop offset="0.759012" stop-color="#0BD4B0"/>
</linearGradient>
<linearGradient id="paint8_linear" x1="-1.33057" y1="41.3743" x2="0.769212" y2="49.4513" gradientUnits="userSpaceOnUse">
<stop offset="0.238725" stop-color="#3A8370"/>
<stop offset="0.759012" stop-color="#0BD4B0"/>
</linearGradient>
<linearGradient id="paint9_linear" x1="-1.33063" y1="23.8658" x2="20.0198" y2="39.4932" gradientUnits="userSpaceOnUse">
<stop offset="0.238725" stop-color="#3A8370"/>
<stop offset="0.759012" stop-color="#0BD4B0"/>
</linearGradient>
<linearGradient id="paint10_linear" x1="-0.404666" y1="24.8709" x2="22.2501" y2="58.8529" gradientUnits="userSpaceOnUse">
<stop stop-color="#6654FC"/>
<stop offset="0.4943" stop-color="#07C1FE"/>
<stop offset="1" stop-color="#0CE176"/>
</linearGradient>
<linearGradient id="paint11_linear" x1="-1.996" y1="47.761" x2="-1.00041" y2="53.4706" gradientUnits="userSpaceOnUse">
<stop offset="0.238725" stop-color="#3A8370"/>
<stop offset="0.759012" stop-color="#0BD4B0"/>
</linearGradient>
<linearGradient id="paint12_linear" x1="-0.404666" y1="24.8709" x2="22.2501" y2="58.8529" gradientUnits="userSpaceOnUse">
<stop stop-color="#6654FC"/>
<stop offset="0.4943" stop-color="#07C1FE"/>
<stop offset="1" stop-color="#0CE176"/>
</linearGradient>
<linearGradient id="paint13_linear" x1="-1.996" y1="47.761" x2="-1.00041" y2="53.4706" gradientUnits="userSpaceOnUse">
<stop offset="0.238725" stop-color="#3A8370"/>
<stop offset="0.759012" stop-color="#0BD4B0"/>
</linearGradient>
<linearGradient id="paint14_linear" x1="-0.404666" y1="24.8709" x2="22.2501" y2="58.8529" gradientUnits="userSpaceOnUse">
<stop stop-color="#6654FC"/>
<stop offset="0.4943" stop-color="#07C1FE"/>
<stop offset="1" stop-color="#0CE176"/>
</linearGradient>
<linearGradient id="paint15_linear" x1="-1.996" y1="47.761" x2="-1.00041" y2="53.4706" gradientUnits="userSpaceOnUse">
<stop offset="0.238725" stop-color="#3A8370"/>
<stop offset="0.759012" stop-color="#0BD4B0"/>
</linearGradient>
<linearGradient id="paint16_linear" x1="-1.42555" y1="53.8997" x2="0.096261" y2="60.7872" gradientUnits="userSpaceOnUse">
<stop offset="0.238725" stop-color="#3A8370"/>
<stop offset="0.759012" stop-color="#0BD4B0"/>
</linearGradient>
<linearGradient id="paint17_linear" x1="-1.42555" y1="53.8997" x2="0.096261" y2="60.7872" gradientUnits="userSpaceOnUse">
<stop offset="0.238725" stop-color="#3A8370"/>
<stop offset="0.759012" stop-color="#0BD4B0"/>
</linearGradient>
<linearGradient id="paint18_linear" x1="-1.42555" y1="53.8997" x2="0.096261" y2="60.7872" gradientUnits="userSpaceOnUse">
<stop offset="0.238725" stop-color="#3A8370"/>
<stop offset="0.759012" stop-color="#0BD4B0"/>
</linearGradient>
<linearGradient id="paint19_linear" x1="-5.43414" y1="28.224" x2="17.2205" y2="62.2061" gradientUnits="userSpaceOnUse">
<stop stop-color="#6654FC"/>
<stop offset="0.4943" stop-color="#07C1FE"/>
<stop offset="1" stop-color="#0CE176"/>
</linearGradient>
<linearGradient id="paint20_linear" x1="-1.42567" y1="58.7669" x2="19.801" y2="74.3037" gradientUnits="userSpaceOnUse">
<stop offset="0.238725" stop-color="#3A8370"/>
<stop offset="0.759012" stop-color="#0BD4B0"/>
</linearGradient>
</defs>
</svg>
