<svg width="12" height="12" viewBox="0 0 12 12" fill="none" xmlns="http://www.w3.org/2000/svg">
<path d="M12 11C12 11.5523 11.5523 12 11 12H10.6241C10.0718 12 9.6241 11.5523 9.6241 11V4.33714L6.77076 7.86498C6.36992 8.36057 5.61395 8.35969 5.21427 7.86317L2.3759 4.33714V11C2.3759 11.5523 1.92818 12 1.3759 12H0.999999C0.447715 12 0 11.5523 0 11V0.953453C0 0.426876 0.426875 0 0.953452 0C1.24313 0 1.5171 0.131692 1.69803 0.35791L5.99139 5.72571L10.3018 0.35682C10.4829 0.131239 10.7565 0 11.0458 0C11.5728 0 12 0.427201 12 0.954179V11Z" fill="#191C1C" fill-opacity="0.7"/>
</svg>
