<svg width="21" height="21" viewBox="0 0 21 21" fill="currentColor" xmlns="http://www.w3.org/2000/svg">
<path d="M5.90684 16.5C5.87077 16.5 5.83616 16.4858 5.81053 16.4604L5.04 15.6933C4.98715 15.6404 4.98715 15.5535 5.04 15.5006L7.65844 12.8822L6.72596 11.9497C6.64754 11.8696 6.69357 11.7332 6.80608 11.7196L10.0314 11.319C10.1201 11.3087 10.1934 11.382 10.1831 11.4707L9.78252 14.6943C9.77958 14.7196 9.76959 14.7435 9.75368 14.7633C9.73777 14.7832 9.71659 14.7981 9.69257 14.8065C9.66855 14.8149 9.64266 14.8163 9.61786 14.8106C9.59307 14.8049 9.57037 14.7924 9.55238 14.7744L8.6199 13.8419L6.00316 16.4604C5.97753 16.4858 5.94292 16.5 5.90684 16.5Z" fill="currentColor"/>
<path d="M16.0922 4.5C16.1283 4.5 16.1629 4.51424 16.1885 4.53962L16.959 5.30674C17.0119 5.35959 17.0119 5.44653 16.959 5.49937L14.3406 8.11782L15.2731 9.0503C15.3515 9.13042 15.3055 9.2668 15.1929 9.28044L11.9676 9.68104C11.879 9.69127 11.8057 9.61797 11.8159 9.52932L12.2165 6.3057C12.2194 6.28044 12.2294 6.25651 12.2453 6.23666C12.2613 6.21681 12.2824 6.20185 12.3065 6.19349C12.3305 6.18512 12.3564 6.1837 12.3812 6.18938C12.406 6.19505 12.4287 6.2076 12.4466 6.22558L13.3791 7.15806L15.9959 4.53962C16.0215 4.51424 16.0561 4.5 16.0922 4.5Z" fill="currentColor"/>
</svg>
