<svg width="14" height="12" viewBox="0 0 14 12" fill="none" xmlns="http://www.w3.org/2000/svg">
<path d="M2.48541 8.47305L1.83234 8.84182L2.48541 8.47305ZM4.22229 1.61468L3.8303 0.975276L3.8303 0.975276L4.22229 1.61468ZM4.29402 1.57153L5.04402 1.57151C5.044 1.1573 4.70822 0.821533 4.29402 0.821533V1.57153ZM7.62438 11.684C8.03367 11.6203 8.31386 11.2369 8.25021 10.8276C8.18655 10.4183 7.80315 10.1381 7.39385 10.2018L7.62438 11.684ZM1 0.821533C0.585786 0.821533 0.25 1.15732 0.25 1.57153C0.25 1.98575 0.585786 2.32153 1 2.32153V0.821533ZM3.54413 4.93973C3.54414 5.35395 3.87994 5.68972 4.29415 5.68971C4.70837 5.68969 5.04414 5.3539 5.04413 4.93968L3.54413 4.93973ZM3.13849 8.10429C1.98319 6.05826 2.65619 3.45452 4.61429 2.25409L3.8303 0.975276C1.17264 2.60457 0.28649 6.10415 1.83234 8.84182L3.13849 8.10429ZM4.61429 2.25409C4.63448 2.24171 4.65481 2.22948 4.67528 2.21739L3.91275 0.925674C3.88508 0.942004 3.8576 0.958539 3.8303 0.975276L4.61429 2.25409ZM7.39385 10.2018C5.74603 10.4581 4.03034 9.68373 3.13849 8.10429L1.83234 8.84182C3.03497 10.9717 5.36652 12.0351 7.62438 11.684L7.39385 10.2018ZM4.29402 0.821533H1V2.32153H4.29402V0.821533ZM3.54402 1.57156L3.54413 4.93973L5.04413 4.93968L5.04402 1.57151L3.54402 1.57156Z" fill="#191C1C" fill-opacity="0.7"/>
<path d="M11.5144 3.52698L10.8613 3.89574L11.5144 3.52698ZM9.77755 10.3853L10.1695 11.0248H10.1695L9.77755 10.3853ZM9.70582 10.4285L8.95582 10.4285C8.95584 10.8427 9.29162 11.1785 9.70582 11.1785L9.70582 10.4285ZM6.37546 0.316061C5.96617 0.379718 5.68597 0.76312 5.74963 1.17241C5.81329 1.58171 6.19669 1.8619 6.60598 1.79824L6.37546 0.316061ZM12.9998 11.1785C13.4141 11.1785 13.7498 10.8427 13.7498 10.4285C13.7498 10.0143 13.4141 9.6785 12.9998 9.6785V11.1785ZM10.4557 7.06029C10.4557 6.64608 10.1199 6.31031 9.70569 6.31032C9.29147 6.31033 8.9557 6.64613 8.95571 7.06034L10.4557 7.06029ZM10.8613 3.89574C12.0167 5.94177 11.3437 8.54551 9.38555 9.74594L10.1695 11.0248C12.8272 9.39546 13.7133 5.89588 12.1675 3.15821L10.8613 3.89574ZM9.38555 9.74594C9.36536 9.75831 9.34503 9.77055 9.32455 9.78263L10.0871 11.0744C10.1148 11.058 10.1422 11.0415 10.1695 11.0248L9.38555 9.74594ZM6.60598 1.79824C8.25381 1.54195 9.9695 2.31629 10.8613 3.89574L12.1675 3.15821C10.9649 1.02837 8.63332 -0.035105 6.37546 0.316061L6.60598 1.79824ZM9.70582 11.1785L12.9998 11.1785V9.6785L9.70582 9.67849L9.70582 11.1785ZM10.4558 10.4285L10.4557 7.06029L8.95571 7.06034L8.95582 10.4285L10.4558 10.4285Z" fill="#191C1C" fill-opacity="0.7"/>
</svg>
