<svg width="12" height="14" viewBox="0 0 12 14" fill="none" xmlns="http://www.w3.org/2000/svg">
<path fill-rule="evenodd" clip-rule="evenodd" d="M1.76641 4.39194C1.71574 4.39194 1.67465 4.43302 1.67465 4.4837V9.51646C1.67465 9.56713 1.71574 9.60822 1.76641 9.60822H3.70559V11.2599H1.76641C0.803525 11.2599 0.0229492 10.4793 0.0229492 9.51646V4.4837C0.0229492 3.52081 0.803525 2.74023 1.76641 2.74023H3.70559V4.39194H1.76641ZM10.2332 4.39194H8.29365V2.74023H10.2332C11.1961 2.74023 11.9766 3.52081 11.9766 4.4837V9.51646C11.9766 10.4793 11.1961 11.2599 10.2332 11.2599H8.29365V9.60822H10.2332C10.2838 9.60822 10.3249 9.56713 10.3249 9.51646V4.4837C10.3249 4.43302 10.2838 4.39194 10.2332 4.39194Z" fill="#191C1C" fill-opacity="0.7"/>
<path fill-rule="evenodd" clip-rule="evenodd" d="M3.33838 1.49431C3.33838 1.0382 3.70813 0.668457 4.16423 0.668457H7.83468C8.29079 0.668457 8.66053 1.0382 8.66053 1.49431C8.66053 1.95041 8.29079 2.32016 7.83468 2.32016H6.82531V11.6798H7.83468C8.29079 11.6798 8.66053 12.0496 8.66053 12.5057C8.66053 12.9618 8.29079 13.3315 7.83468 13.3315H4.16423C3.70813 13.3315 3.33838 12.9618 3.33838 12.5057C3.33838 12.0496 3.70813 11.6798 4.16423 11.6798H5.1736V2.32016H4.16423C3.70813 2.32016 3.33838 1.95041 3.33838 1.49431Z" fill="#5E6060"/>
</svg>
