<svg width="27" height="27" viewBox="0 0 27 27" fill="none" xmlns="http://www.w3.org/2000/svg">
<circle cx="13.5" cy="13.5" r="13.5" fill="#EBF9EB"/>
<path d="M7.15386 13.9755C6.99106 13.7525 6.67826 13.7036 6.45522 13.8664C6.23217 14.0292 6.18334 14.342 6.34614 14.5651L7.15386 13.9755ZM10.9982 20.0905L10.5943 20.3853L10.6203 20.4208L10.652 20.4513L10.9982 20.0905ZM11.8095 20.088L12.1556 20.4488L12.1767 20.4285L12.1953 20.406L11.8095 20.088ZM21.6001 8.99675C21.7757 8.78366 21.7454 8.46854 21.5323 8.29289C21.3192 8.11725 21.0041 8.1476 20.8285 8.36068L21.6001 8.99675ZM6.34614 14.5651L10.5943 20.3853L11.4021 19.7957L7.15386 13.9755L6.34614 14.5651ZM10.652 20.4513C11.0719 20.8541 11.7414 20.8462 12.1556 20.4488L11.4633 19.7272C11.4498 19.7402 11.4285 19.75 11.4017 19.7501C11.3752 19.7503 11.356 19.7408 11.3444 19.7297L10.652 20.4513ZM12.1953 20.406L21.6001 8.99675L20.8285 8.36068L11.4236 19.7699L12.1953 20.406Z" fill="#3CC13B"/>
</svg>
