<svg xmlns="http://www.w3.org/2000/svg" width="174" height="124" viewBox="0 0 62 44">
  <path fill-rule="evenodd"
        d="M62 7.765v28.47H38.5A20.57 20.57 0 0 1 34.577 44H18.274c7.208 0 13.052-5.794 13.052-12.941 0-7.075-5.726-12.824-12.834-12.94l-11.966-.001c-2.883 0-5.22-2.318-5.22-5.177 0-2.859 2.337-5.176 5.22-5.176h9.79L9.789 0h9.79l6.526 7.765H62zM0 36.235V24.151a13.072 13.072 0 0 0 6.308 1.73l11.966.001c2.883 0 5.22 2.318 5.22 5.177 0 2.859-2.337 5.176-5.22 5.176H0zm38.5-10.353H62v-7.764H34.577a20.57 20.57 0 0 1 3.923 7.764z"
        xmlns="http://www.w3.org/2000/svg"></path>
</svg>
